<?xml version="1.0" ?><svg xmlns="http://www.w3.org/2000/svg" xmlns:xlink="http://www.w3.org/1999/xlink" version="1.1" viewBox="0 0 512 512" style="enable-background:new 0 0 512 512;" xml:space="preserve"><g id="_x34_9_x2C__Market_Analysis_x2C__Research_x2C__Trends_x2C__Consumer_x2C__Evaluation_x2C__Strategy"><g><g><path style="fill:#FFFFFF;" d="M341,476l-85,12.5L171,476l3.58-1.43C202.61,463.35,221,436.2,221,406l37.5-20.42L291,406     c0,30.2,18.39,57.35,46.42,68.57L341,476z"/><path style="fill:#9DCAFC;" d="M462.4,86c-13.693,0-375.764,0-412.8,0C25.52,86,6,105.52,6,129.6V351l252.5,27.5L506,351V129.6     C506,105.52,486.48,86,462.4,86z"/><path style="fill:#FFFFFF;" d="M471,121v230H41V121C41.172,121,470.83,121,471,121z"/><path style="fill:#FFFFFF;" d="M411,251.37c0,13.6-11.03,24.63-24.63,24.63H125.63c-13.6,0-24.63-11.03-24.63-24.63V61l13.25-10     H211l20-20h162.25L411,41V251.37z"/><polygon style="fill:#9DCAFC;" points="376,181 376,251 346,251 338.5,216 346,181    "/><polygon style="fill:#9DCAFC;" points="346,181 346,251 316,251 310,206 316,156 346,156    "/><polygon style="fill:#9DCAFC;" points="286,201 293.667,227 286,251 256,251 256,201    "/><polygon style="fill:#9DCAFC;" points="316,156 316,251 286,251 286,201 286,121 316,121    "/><path style="fill:#9DCAFC;" d="M186,86c33.14,0,60,26.86,60,60s-26.86,60-60,60s-60-26.86-60-60L186,86z"/><path style="fill:#9DCAFC;" d="M186,86v60h-60C126,112.86,152.86,86,186,86z"/><polygon style="fill:#9DCAFC;" points="346,11 357.25,26 346,41 291,41 280,26 291,11    "/><path style="fill:#9DCAFC;" d="M411,35.63V41h-65V11h40.37C399.97,11,411,22.03,411,35.63z"/><path style="fill:#9DCAFC;" d="M291,11v30h-60l-20,20H101V35.63C101,22.03,112.03,11,125.63,11H291z"/><path style="fill:#9DCAFC;" d="M431,501H86c0-6.9,2.8-13.16,7.32-17.68C97.84,478.8,104.1,476,111,476h60h170h65     C419.81,476,431,487.19,431,501z"/><path style="fill:#9DCAFC;" d="M506,351v11.4c0,24.08-19.52,43.6-43.6,43.6H291h-70H49.6C25.52,406,6,386.48,6,362.4V351h35h430     H506z"/><path style="fill:#4269A7;" d="M462.4,81H416V35.634C416,19.294,402.706,6,386.366,6c-18.125,0-249.034,0-260.732,0     C109.294,6,96,19.294,96,35.634V81H49.6C22.802,81,1,102.802,1,129.6V362.4C1,389.198,22.802,411,49.6,411h166.218     c-1.87,26.241-18.365,49.034-43.099,58.927L170.036,471H111c-16.542,0-30,13.458-30,30c0,2.762,2.238,5,5,5h345     c2.762,0,5-2.238,5-5c0-16.542-13.458-30-30-30h-64.036l-2.684-1.073c-24.733-9.893-41.228-32.686-43.098-58.927H462.4     c26.798,0,48.6-21.802,48.6-48.6V129.6C511,102.802,489.198,81,462.4,81z M462.4,91c21.284,0,38.6,17.315,38.6,38.6V346h-25V121     c0-2.762-2.238-5-5-5h-55V91H462.4z M406,46v205.366c0,10.826-8.808,19.634-19.634,19.634H125.634     C114.808,271,106,262.192,106,251.366V66h105c1.326,0,2.598-0.526,3.535-1.465L233.071,46C250.62,46,387.172,46,406,46z      M125.634,281h260.732c16.34,0,29.634-13.294,29.634-29.634V126h50v220H46V126h50v125.366C96,267.706,109.294,281,125.634,281z      M406,35.634V36h-55V16h35.366C397.192,16,406,24.808,406,35.634z M341,16v20h-45V16H341z M125.634,16H286v20h-55     c-1.326,0-2.598,0.526-3.535,1.465L208.929,56H106V35.634C106,24.808,114.808,16,125.634,16z M49.6,91H96v25H41     c-2.762,0-5,2.238-5,5v225H11V129.6C11,108.315,28.315,91,49.6,91z M425.367,496H91.633c2.226-8.616,10.065-15,19.367-15     c10.433,0,284.594,0,295,0C415.302,481,423.142,487.384,425.367,496z M320.169,471H191.831c19.835-13.559,32.479-35.5,34.002-60     h60.335C287.69,435.5,300.334,457.441,320.169,471z M462.4,401H49.6C28.315,401,11,383.685,11,362.4V356     c17.349,0,472.641,0,490,0v6.4C501,383.685,483.685,401,462.4,401z"/><path style="fill:#4269A7;" d="M246,451h20c2.762,0,5-2.238,5-5s-2.238-5-5-5h-20c-2.762,0-5,2.238-5,5S243.238,451,246,451z"/><path style="fill:#4269A7;" d="M191,46c2.762,0,5-2.238,5-5V31c0-2.762-2.238-5-5-5s-5,2.238-5,5v10     C186,43.762,188.238,46,191,46z"/><path style="fill:#4269A7;" d="M161,46c2.762,0,5-2.238,5-5V31c0-2.762-2.238-5-5-5s-5,2.238-5,5v10     C156,43.762,158.238,46,161,46z"/><path style="fill:#4269A7;" d="M131,46c2.762,0,5-2.238,5-5V31c0-2.762-2.238-5-5-5s-5,2.238-5,5v10     C126,43.762,128.238,46,131,46z"/><path style="fill:#4269A7;" d="M186,81c-35.841,0-65,29.159-65,65s29.159,65,65,65s65-29.159,65-65S221.841,81,186,81z      M181,91.237V141h-49.762C133.624,114.657,154.657,93.624,181,91.237z M186,201c-28.641,0-52.227-22.009-54.762-50H186     c2.762,0,5-2.238,5-5V91.237c27.991,2.536,50,26.122,50,54.763C241,176.327,216.327,201,186,201z"/><path style="fill:#4269A7;" d="M251,246h-5c-2.762,0-5,2.238-5,5s2.238,5,5,5h10c7.259,0,52.693,0,60,0h30h30h10     c2.762,0,5-2.238,5-5s-2.238-5-5-5h-5v-65c0-2.762-2.238-5-5-5h-25v-20c0-2.762-2.238-5-5-5h-25v-30c0-2.762-2.238-5-5-5h-30     c-2.762,0-5,2.238-5,5v75h-25c-2.762,0-5,2.238-5,5V246z M371,186v60h-20v-60H371z M341,161c0,12.174,0,76.606,0,85h-20v-85H341z      M291,126h20c0,10.726,0,103.798,0,120h-20C291,224.235,291,164.151,291,126z M261,206h20v40h-20V206z"/><path style="fill:#4269A7;" d="M336,71h50c2.762,0,5-2.238,5-5c0-2.762-2.238-5-5-5h-50c-2.762,0-5,2.238-5,5     C331,68.762,333.238,71,336,71z"/><path style="fill:#4269A7;" d="M311,71h5c2.762,0,5-2.238,5-5c0-2.762-2.238-5-5-5h-5c-2.762,0-5,2.238-5,5     C306,68.762,308.238,71,311,71z"/><path style="fill:#4269A7;" d="M336,96h50c2.762,0,5-2.238,5-5s-2.238-5-5-5h-50c-2.762,0-5,2.238-5,5S333.238,96,336,96z"/><path style="fill:#4269A7;" d="M311,96h5c2.762,0,5-2.238,5-5s-2.238-5-5-5h-5c-2.762,0-5,2.238-5,5S308.238,96,311,96z"/></g></g></g><g id="Layer_1"/></svg>